<?xml version="1.0" encoding="UTF-8"?>
<svg id="icon" xmlns="http://www.w3.org/2000/svg" version="1.1" viewBox="0 0 32 32">
  <!-- Generator: Adobe Illustrator 29.8.2, SVG Export Plug-In . SVG Version: 2.1.1 Build 3)  -->
  <defs>
    <style>
      .st0 {
        fill: none;
      }

      .st1 {
        fill: #fff;
      }
    </style>
  </defs>
  <path class="st1" d="M26,4h-4V2h-2v2h-8V2h-2v2h-4c-1.1,0-2,.9-2,2v20c0,1.1.9,2,2,2h20c1.1,0,2-.9,2-2V6c0-1.1-.9-2-2-2ZM6,6h4v2h2v-2h8v2h2v-2h4v4H6v-4ZM6,12h5v6h-5v-6ZM19,26h-6v-6h6v6ZM19,18h-6v-6h6v6ZM21,26v-6h5v6s-5,0-5,0Z"/>
  <rect id="_Transparent_Rectangle_" class="st0" y="0" width="32" height="32"/>
</svg>